# xmcd
#
# Track frame offsets: 
#        150
#        15409
#        32724
#        49973
#        65183
#        81148
#        106758
#        132666
#        146476
#        159044
#        177800
#        190896
#        229717
#        246128
#        263588
#        274249
#        290302
#        310972
#
# Disc length: 4384 seconds
#
# Revision: 0
# Processed by: cddbd v1.5.2PL0 Copyright (c) Steve Scherf et al.
# Submitted via: ExactAudioCopy v0.95a3
#
DISCID=f7111e12
DTITLE=Various Artist - Radio Sunshine On Tour
DYEAR=2008
DGENRE=Schlager
TTITLE0=Luc - Plus d'amour pour toi - Sehnsucht
TTITLE1=Danielle - Einen Sommer lang
TTITLE2=Sacré Memé - Tu me fais planer
TTITLE3=Jean Drooghaag - Monte la Nava
TTITLE4=Luc and Danielle - Inno d'Amore
TTITLE5=Frederic Mathieu - Nah bei Alsdorf
TTITLE6=Die Rackets - Inch Allah 
TTITLE7=Kurt Lennert - Küss mich und Verführ mich
TTITLE8=Angelo - Tannenzapfenzupfen
TTITLE9=Luc - Nie mehr allein
TTITLE10=Danielle - Über Wolken
TTITLE11=Sacré Memé - Adamo Medley
TTITLE12=Jean Drooghaag - Pinochio
TTITLE13=Klosterchor Herbesthal Baum and Kirchenchor Lontzen - Schwarze 
TTITLE13=Madonna
TTITLE14=Der Froschtaler Musikantenexpress - Rama lama Ding Dong
TTITLE15=Louis Verfaillie - Sylvias Mother
TTITLE16=Sacré Memé and Marie - Tu t'en vas
TTITLE17=Luc - Worte
EXTD=
EXTT0=
EXTT1=
EXTT2=
EXTT3=
EXTT4=
EXTT5=
EXTT6=
EXTT7=
EXTT8=
EXTT9=
EXTT10=
EXTT11=
EXTT12=
EXTT13=
EXTT14=
EXTT15=
EXTT16=
EXTT17=
PLAYORDER=
